<?xml version="1.0" encoding="UTF-8"?>
<svg id="Layer_2" xmlns="http://www.w3.org/2000/svg" viewBox="0 0 565.02 562.51">
  <defs>
    <style>
      .cls-1 {
        fill: #028e37;
      }

      .cls-2 {
        fill: #151215;
      }

      .cls-3 {
        fill: #151115;
      }

      .cls-4 {
        fill: #fb9303;
      }
    </style>
  </defs>
  <g id="Layer_1-2" data-name="Layer_1">
    <path class="cls-1" d="M306.41,0c32.24,2.91,63.18,10.8,92.64,24.18,36.33,16.51,67.83,39.65,94.5,69.4,24.72,27.56,43.34,58.77,55.59,93.64,12.38,35.24,17.64,71.58,15.36,108.97-1.67,27.25-7.02,53.71-16.36,79.34-14.51,39.82-37.13,74.43-67.45,103.99-2.68,2.61-2.84,4.05-.07,6.64,9.45,8.87,18.67,17.99,27.97,27.02,16.93,16.44,33.85,32.88,50.78,49.32h-122.95c-.51-.84-.89-1.81-1.56-2.5-8.08-8.36-16.27-16.6-24.25-25.05-2.47-2.62-4.53-2.8-7.79-1.27-31.62,14.87-64.85,23.51-99.75,26.05-42.01,3.06-82.67-2.92-121.88-18.01-48.5-18.67-88.95-48.52-121.16-89.36-31.4-39.81-50.7-84.9-57.43-135.11-5.58-41.65-2.23-82.69,10.91-122.78,20.3-61.94,57.68-111.08,111.54-147.5C164.34,20.4,208.35,8.73,255.15.43M109.31,278.01c0,35.81,0,71.61-.01,107.42,0,2.87.03,5.27,3.03,7.24,19.98,13.15,39.76,26.58,59.67,39.83,33.79,22.49,67.66,44.87,101.41,67.41,3,2.01,5.16,2.45,8.37.27,15.68-10.65,31.56-21.02,47.35-31.52,37.82-25.16,75.61-50.35,113.46-75.46,2.59-1.72,3.98-3.52,3.98-6.81-.07-72.11-.06-144.22,0-216.33,0-2.74-.75-4.59-3.16-6.19-53.92-35.82-107.81-71.71-161.64-107.67-2.75-1.83-4.74-2.01-7.57-.12-16.71,11.18-33.61,22.09-50.35,33.22-36.44,24.22-72.77,48.59-109.31,72.66-4.05,2.67-5.33,5.48-5.31,10.12.17,35.31.09,70.61.09,105.92Z"/>
    <polygon class="cls-4" points="144.16 190.76 277.1 90.53 420.87 190.76 420.87 377.12 278.77 461.82 134.99 375 144.16 190.76"/>
    <path class="cls-2" d="M109.31,278.01c0-35.31.08-70.61-.09-105.92-.02-4.64,1.26-7.45,5.31-10.12,36.54-24.07,72.87-48.45,109.31-72.66,16.75-11.13,33.64-22.04,50.35-33.22,2.84-1.9,4.83-1.72,7.57.12,53.83,35.96,107.71,71.84,161.64,107.67,2.42,1.6,3.16,3.45,3.16,6.19-.05,72.11-.07,144.22,0,216.33,0,3.29-1.39,5.09-3.98,6.81-37.85,25.1-75.64,50.3-113.46,75.46-15.79,10.5-31.66,20.86-47.35,31.52-3.22,2.18-5.37,1.74-8.37-.27-33.75-22.55-67.62-44.93-101.41-67.41-19.91-13.25-39.7-26.68-59.67-39.83-3-1.97-3.03-4.38-3.03-7.24.02-35.81.01-71.61.01-107.42ZM273.99,441.6c3.02,2.02,5.09,2.67,8.62.3,37.54-25.19,75.24-50.13,112.96-75.05,2.25-1.49,3.06-3.13,3.06-5.71-.05-56.11-.05-112.23.02-168.34,0-2.63-.83-4.28-3.01-5.73-37.9-25.12-75.78-50.26-113.59-75.51-2.64-1.76-4.55-1.74-7.12-.02-20.43,13.68-40.92,27.29-61.42,40.86-14.65,9.69-45.14,28.6-54.8,35.93-1.85,1.41-3.15,4.57-3.14,5.53.01,54.51,0,109.01.02,163.52,0,3,.81,5.74,2.26,8.04,2.41,3.84,86.28,56.23,116.15,76.18Z"/>
    <path class="cls-3" d="M317.33,368.63c6.87,4.9,14.95,5.26,22.88,5.7,3.49.19,4.44,1.25,4.44,4.66-.02,10.69.12,10.69-10.34,10.69-38.61,0-77.22-.08-115.83.11-4.45.02-5.62-1.24-5.59-5.55.07-9.15-.17-9.13,8.61-10.06,4.78-.51,9.56-1.03,14.09-2.86,6-2.42,9.19-6.97,9.91-13.23.51-4.45.85-8.95.85-13.43.06-45.1.07-90.2,0-135.3,0-3.98-.33-8-1.01-11.92-.9-5.21-8.76-14.41-9.79-14.82-5.52-2.22-11.02-4.5-17.16-3.94-3.25.3-4.89-.7-4.84-4.39.07-5.88,1.67-7.59,8.34-7.6,38.63-.02,77.25,0,115.88,0,.83,0,1.67.04,2.5.03,2.81-.05,3.46,1.81,3.09,3.98-.45,2.67,1.97,6.98-2.18,7.61-3.77.58-7.33,1.99-11.09,2.29-14.24,1.13-20.59,7.9-20.59,22.3-.02,49.61.03,99.23-.06,148.84,0,5.33,2.06,9.9,3.93,14.64.79,2,2.2,2.26,3.95,2.23Z"/>
  </g>
</svg>